<mxfile host="app.diagrams.net" modified="2022-06-07T11:21:43.899Z" agent="5.0 (Windows)" etag="mtrEnRT5_aykdEBvYm4e" version="19.0.2" type="github">
  <diagram id="C5RBs43oDa-KdzZeNtuy" name="Page-1">
    <mxGraphModel dx="862" dy="397" grid="1" gridSize="10" guides="1" tooltips="1" connect="1" arrows="1" fold="1" page="1" pageScale="1" pageWidth="827" pageHeight="1169" math="0" shadow="0">
      <root>
        <mxCell id="WIyWlLk6GJQsqaUBKTNV-0" />
        <mxCell id="WIyWlLk6GJQsqaUBKTNV-1" parent="WIyWlLk6GJQsqaUBKTNV-0" />
        <mxCell id="qPvC4VrnpZFJ6rwtdAV5-1" value="" style="edgeStyle=orthogonalEdgeStyle;rounded=0;orthogonalLoop=1;jettySize=auto;html=1;" edge="1" parent="WIyWlLk6GJQsqaUBKTNV-1" source="WIyWlLk6GJQsqaUBKTNV-3" target="qPvC4VrnpZFJ6rwtdAV5-0">
          <mxGeometry relative="1" as="geometry" />
        </mxCell>
        <mxCell id="WIyWlLk6GJQsqaUBKTNV-3" value="Start" style="rounded=1;whiteSpace=wrap;html=1;fontSize=12;glass=0;strokeWidth=1;shadow=0;" parent="WIyWlLk6GJQsqaUBKTNV-1" vertex="1">
          <mxGeometry x="160" y="80" width="120" height="40" as="geometry" />
        </mxCell>
        <mxCell id="qPvC4VrnpZFJ6rwtdAV5-3" value="" style="edgeStyle=orthogonalEdgeStyle;rounded=0;orthogonalLoop=1;jettySize=auto;html=1;" edge="1" parent="WIyWlLk6GJQsqaUBKTNV-1" source="qPvC4VrnpZFJ6rwtdAV5-0" target="qPvC4VrnpZFJ6rwtdAV5-2">
          <mxGeometry relative="1" as="geometry" />
        </mxCell>
        <mxCell id="qPvC4VrnpZFJ6rwtdAV5-5" value="" style="edgeStyle=orthogonalEdgeStyle;rounded=0;orthogonalLoop=1;jettySize=auto;html=1;" edge="1" parent="WIyWlLk6GJQsqaUBKTNV-1" source="qPvC4VrnpZFJ6rwtdAV5-0" target="qPvC4VrnpZFJ6rwtdAV5-4">
          <mxGeometry relative="1" as="geometry" />
        </mxCell>
        <mxCell id="qPvC4VrnpZFJ6rwtdAV5-0" value="get input light level &amp;amp; light level is bigger than %40 ?" style="whiteSpace=wrap;html=1;rounded=1;glass=0;strokeWidth=1;shadow=0;" vertex="1" parent="WIyWlLk6GJQsqaUBKTNV-1">
          <mxGeometry x="160" y="190" width="120" height="60" as="geometry" />
        </mxCell>
        <mxCell id="qPvC4VrnpZFJ6rwtdAV5-2" value="Yes, open the light" style="whiteSpace=wrap;html=1;rounded=1;glass=0;strokeWidth=1;shadow=0;" vertex="1" parent="WIyWlLk6GJQsqaUBKTNV-1">
          <mxGeometry x="360" y="190" width="120" height="60" as="geometry" />
        </mxCell>
        <mxCell id="qPvC4VrnpZFJ6rwtdAV5-7" style="edgeStyle=orthogonalEdgeStyle;rounded=0;orthogonalLoop=1;jettySize=auto;html=1;" edge="1" parent="WIyWlLk6GJQsqaUBKTNV-1" source="qPvC4VrnpZFJ6rwtdAV5-4" target="qPvC4VrnpZFJ6rwtdAV5-0">
          <mxGeometry relative="1" as="geometry" />
        </mxCell>
        <mxCell id="qPvC4VrnpZFJ6rwtdAV5-4" value="No, go to step 2" style="whiteSpace=wrap;html=1;rounded=1;glass=0;strokeWidth=1;shadow=0;" vertex="1" parent="WIyWlLk6GJQsqaUBKTNV-1">
          <mxGeometry x="160" y="330" width="120" height="60" as="geometry" />
        </mxCell>
      </root>
    </mxGraphModel>
  </diagram>
</mxfile>
